<?xml version="1.0" encoding="UTF-8"?>
<!DOCTYPE svg PUBLIC "-//W3C//DTD SVG 1.1//EN" "http://www.w3.org/Graphics/SVG/1.1/DTD/svg11.dtd">
<svg version="1.2" width="33mm" height="32mm" viewBox="10625 18075 3300 3200" preserveAspectRatio="xMidYMid" fill-rule="evenodd" stroke-width="28.222" stroke-linejoin="round" xmlns="http://www.w3.org/2000/svg" xmlns:ooo="http://xml.openoffice.org/svg/export" xmlns:xlink="http://www.w3.org/1999/xlink" xmlns:presentation="http://sun.com/xmlns/staroffice/presentation" xmlns:smil="http://www.w3.org/2001/SMIL20/" xmlns:anim="urn:oasis:names:tc:opendocument:xmlns:animation:1.0" xml:space="preserve">
 <defs class="ClipPathGroup">
  <clipPath id="presentation_clip_path" clipPathUnits="userSpaceOnUse">
   <rect x="10625" y="18075" width="3300" height="3200"/>
  </clipPath>
 </defs>
 <defs class="TextShapeIndex">
  <g ooo:slide="id1" ooo:id-list="id3 id4 id5 id6 id7 id8 id9"/>
 </defs>
 <defs class="EmbeddedBulletChars">
  <g id="bullet-char-template(57356)" transform="scale(0.00048828125,-0.00048828125)">
   <path d="M 580,1141 L 1163,571 580,0 -4,571 580,1141 Z"/>
  </g>
  <g id="bullet-char-template(57354)" transform="scale(0.00048828125,-0.00048828125)">
   <path d="M 8,1128 L 1137,1128 1137,0 8,0 8,1128 Z"/>
  </g>
  <g id="bullet-char-template(10146)" transform="scale(0.00048828125,-0.00048828125)">
   <path d="M 174,0 L 602,739 174,1481 1456,739 174,0 Z M 1358,739 L 309,1346 659,739 1358,739 Z"/>
  </g>
  <g id="bullet-char-template(10132)" transform="scale(0.00048828125,-0.00048828125)">
   <path d="M 2015,739 L 1276,0 717,0 1260,543 174,543 174,936 1260,936 717,1481 1274,1481 2015,739 Z"/>
  </g>
  <g id="bullet-char-template(10007)" transform="scale(0.00048828125,-0.00048828125)">
   <path d="M 0,-2 C -7,14 -16,27 -25,37 L 356,567 C 262,823 215,952 215,954 215,979 228,992 255,992 264,992 276,990 289,987 310,991 331,999 354,1012 L 381,999 492,748 772,1049 836,1024 860,1049 C 881,1039 901,1025 922,1006 886,937 835,863 770,784 769,783 710,716 594,584 L 774,223 C 774,196 753,168 711,139 L 727,119 C 717,90 699,76 672,76 641,76 570,178 457,381 L 164,-76 C 142,-110 111,-127 72,-127 30,-127 9,-110 8,-76 1,-67 -2,-52 -2,-32 -2,-23 -1,-13 0,-2 Z"/>
  </g>
  <g id="bullet-char-template(10004)" transform="scale(0.00048828125,-0.00048828125)">
   <path d="M 285,-33 C 182,-33 111,30 74,156 52,228 41,333 41,471 41,549 55,616 82,672 116,743 169,778 240,778 293,778 328,747 346,684 L 369,508 C 377,444 397,411 428,410 L 1163,1116 C 1174,1127 1196,1133 1229,1133 1271,1133 1292,1118 1292,1087 L 1292,965 C 1292,929 1282,901 1262,881 L 442,47 C 390,-6 338,-33 285,-33 Z"/>
  </g>
  <g id="bullet-char-template(9679)" transform="scale(0.00048828125,-0.00048828125)">
   <path d="M 813,0 C 632,0 489,54 383,161 276,268 223,411 223,592 223,773 276,916 383,1023 489,1130 632,1184 813,1184 992,1184 1136,1130 1245,1023 1353,916 1407,772 1407,592 1407,412 1353,268 1245,161 1136,54 992,0 813,0 Z"/>
  </g>
  <g id="bullet-char-template(8226)" transform="scale(0.00048828125,-0.00048828125)">
   <path d="M 346,457 C 273,457 209,483 155,535 101,586 74,649 74,723 74,796 101,859 155,911 209,963 273,989 346,989 419,989 480,963 531,910 582,859 608,796 608,723 608,648 583,586 532,535 482,483 420,457 346,457 Z"/>
  </g>
  <g id="bullet-char-template(8211)" transform="scale(0.00048828125,-0.00048828125)">
   <path d="M -4,459 L 1135,459 1135,606 -4,606 -4,459 Z"/>
  </g>
 </defs>
 <defs class="TextEmbeddedBitmaps"/>
 <g class="SlideGroup">
  <g>
   <g id="id1" class="Slide" clip-path="url(#presentation_clip_path)">
    <g class="Page">
     <g class="Group">
      <g class="com.sun.star.drawing.CustomShape">
       <g id="id3">
        <rect class="BoundingBox" stroke="none" fill="none" x="10625" y="18075" width="3301" height="3201"/>
        <path fill="rgb(255,255,255)" stroke="none" d="M 12275,21275 L 10625,21275 10625,18075 13925,18075 13925,21275 12275,21275 Z"/>
       </g>
      </g>
      <g class="Group">
       <g class="Group">
        <g class="com.sun.star.drawing.OpenBezierShape">
         <g id="id4">
          <rect class="BoundingBox" stroke="none" fill="none" x="10727" y="18075" width="201" height="958"/>
          <path fill="none" stroke="rgb(102,102,102)" stroke-width="200" stroke-linejoin="round" d="M 10827,18175 C 10827,18426 10827,18679 10827,18932"/>
         </g>
        </g>
        <g class="com.sun.star.drawing.OpenBezierShape">
         <g id="id5">
          <rect class="BoundingBox" stroke="none" fill="none" x="12164" y="18076" width="201" height="2041"/>
          <path fill="none" stroke="rgb(102,102,102)" stroke-width="200" stroke-linejoin="round" d="M 12264,18176 C 12264,18788 12264,19403 12264,20016"/>
         </g>
        </g>
        <g class="com.sun.star.drawing.EllipseShape">
         <g id="id6">
          <rect class="BoundingBox" stroke="none" fill="none" x="11196" y="18157" width="702" height="1401"/>
          <path fill="none" stroke="rgb(102,102,102)" stroke-width="200" stroke-linejoin="round" d="M 11547,19457 C 11500,19457 11461,19432 11421,19377 11381,19321 11353,19253 11330,19157 11307,19061 11296,18967 11296,18857 11296,18747 11307,18653 11330,18557 11353,18461 11381,18393 11421,18337 11461,18282 11500,18257 11547,18257 11593,18257 11632,18282 11672,18337 11712,18393 11740,18461 11763,18557 11786,18653 11797,18747 11797,18857 11797,18967 11786,19061 11763,19157 11740,19253 11712,19321 11672,19377 11632,19432 11593,19457 11547,19457 L 11547,19457 Z"/>
         </g>
        </g>
        <g class="com.sun.star.drawing.EllipseShape">
         <g id="id7">
          <rect class="BoundingBox" stroke="none" fill="none" x="12594" y="18150" width="781" height="2390"/>
          <path fill="none" stroke="rgb(102,102,102)" stroke-width="200" stroke-linejoin="round" d="M 12984,20439 C 12931,20439 12885,20393 12839,20292 12793,20192 12760,20066 12733,19892 12706,19717 12694,19546 12694,19345 12694,19143 12706,18972 12733,18797 12760,18623 12793,18497 12839,18397 12885,18296 12931,18250 12984,18250 13037,18250 13083,18296 13129,18397 13175,18497 13208,18623 13235,18797 13262,18972 13274,19143 13274,19345 13274,19546 13262,19717 13235,19892 13208,20066 13175,20192 13129,20292 13083,20393 13037,20439 12984,20439 L 12984,20439 Z"/>
         </g>
        </g>
        <g class="com.sun.star.drawing.LineShape">
         <g id="id8">
          <rect class="BoundingBox" stroke="none" fill="none" x="13601" y="18075" width="201" height="2954"/>
          <path fill="none" stroke="rgb(102,102,102)" stroke-width="200" stroke-linejoin="round" d="M 13701,18175 L 13701,20928"/>
         </g>
        </g>
       </g>
       <g class="com.sun.star.drawing.OpenBezierShape">
        <g id="id9">
         <rect class="BoundingBox" stroke="none" fill="none" x="10649" y="19105" width="3152" height="2147"/>
         <path fill="none" stroke="rgb(184,0,71)" stroke-width="150" stroke-linejoin="round" d="M 13725,21075 C 13623,21245 13534,21172 13465,21049 13397,20926 13396,20808 13294,21020 13193,21282 13101,21049 13077,20984 12951,20628 12962,20625 12864,20945 L 12864,20938 C 12764,21326 12718,21162 12647,20892 12522,20328 12532,20374 12434,20837 12333,21389 12289,21159 12218,20777 12093,19928 12100,20058 12002,20708 L 12002,20705 C 11905,21468 11857,21149 11789,20628 11771,19828 11672,19639 11574,20523 11476,21550 11429,21121 11360,20425 11290,19728 11246,19137 11145,20315 11045,21667 11020,21228 10934,20194 10870,19283 10826,18522 10725,20062"/>
        </g>
       </g>
      </g>
     </g>
    </g>
   </g>
  </g>
 </g>
</svg>